<svg width="25" height="24" viewBox="0 0 25 24" fill="none" xmlns="http://www.w3.org/2000/svg">
<path d="M22.4924 16.3889C22.5269 16.3219 22.4366 16.2601 22.3779 16.3098C20.7192 17.7152 18.4893 18.5102 16.0963 18.3562C11.3765 18.0525 7.80948 14.1724 8.12922 9.68968C8.39323 5.98823 11.2247 3.03331 14.8608 2.28671C14.9377 2.27092 14.9384 2.16498 14.8609 2.15207C14.4942 2.09097 14.1204 2.04769 13.7406 2.02326C7.93913 1.64999 2.9175 5.81414 2.52449 11.3241C2.13148 16.8341 6.51591 21.6035 12.3174 21.9767C16.7172 22.2598 20.6685 19.9332 22.4924 16.3889Z" fill="white" fill-opacity="0.7"/>
<path d="M17.1227 6.31158C17.1126 6.24791 17.1961 6.2111 17.2454 6.25745L18.8506 7.76505C18.8727 7.7858 18.9064 7.79152 18.9343 7.77924L20.9994 6.86869C21.0624 6.84088 21.129 6.90502 21.0959 6.96171L20.023 8.79942C20.008 8.82503 20.0132 8.85703 20.0358 8.87825L21.6373 10.3824C21.6869 10.429 21.6446 10.5054 21.5753 10.4942L19.304 10.126C19.2736 10.1211 19.2436 10.1343 19.2292 10.159L18.1523 12.0035C18.1195 12.0597 18.0267 12.0428 18.0166 11.9788L17.6906 9.9123C17.686 9.88314 17.6614 9.85972 17.6298 9.85461L15.3669 9.48777C15.2971 9.47645 15.2821 9.38955 15.3452 9.36175L17.4103 8.4512C17.4381 8.43891 17.4539 8.41139 17.4494 8.38287L17.1227 6.31158Z" fill="white" fill-opacity="0.7"/>
</svg>
