<svg width="25" height="20" viewBox="0 0 25 20" fill="none" xmlns="http://www.w3.org/2000/svg">
<g clip-path="url(#clip0_732_1125)">
<path d="M15.5 -0.000396729C15.6875 -0.000396729 15.8675 0.0896033 15.98 0.239603C17.2812 1.97585 18.9088 3.04835 20.9862 4.42085C21.1812 4.54835 21.38 4.68335 21.5863 4.81835C22.67 5.53835 23.3 6.7571 23.3 8.0471C23.3 9.1196 22.8763 10.0909 22.1825 10.7996H8.8175C8.1275 10.0871 7.7 9.11585 7.7 8.0471C7.7 6.7571 8.32625 5.53835 9.41375 4.81835C9.61625 4.68335 9.81875 4.5521 10.0138 4.42085C12.0913 3.04835 13.7188 1.97585 15.02 0.239603C15.1325 0.0896033 15.3125 -0.000396729 15.5 -0.000396729ZM11.3 19.1996V16.4996C11.3 16.0009 10.8988 15.5996 10.4 15.5996C9.90125 15.5996 9.5 16.0009 9.5 16.4996V19.1996H7.7C7.03625 19.1996 6.5 18.6634 6.5 17.9996V13.1996C6.5 12.5359 7.03625 11.9996 7.7 11.9996H23.3C23.9638 11.9996 24.5 12.5359 24.5 13.1996V17.9996C24.5 18.6634 23.9638 19.1996 23.3 19.1996H21.5V16.4996C21.5 16.0009 21.0988 15.5996 20.6 15.5996C20.1013 15.5996 19.7 16.0009 19.7 16.4996V19.1996H17.3V17.0246C17.3 16.3121 16.985 15.6371 16.4375 15.1796L15.5 14.3996L14.5625 15.1796C14.015 15.6371 13.7 16.3121 13.7 17.0246V19.1996H11.3ZM3.14 0.194603C3.24361 0.116128 3.37003 0.0736575 3.5 0.0736575C3.62997 0.0736575 3.75639 0.116128 3.86 0.194603L4.46 0.644603C5.7425 1.60835 6.5 3.1196 6.5 4.7246V4.7996H0.5V4.7246C0.5 3.1196 1.2575 1.60835 2.54 0.644603L3.14 0.194603ZM0.5 5.9996H6.5V11.1221C5.78375 11.5384 5.3 12.3109 5.3 13.1996V17.9996C5.3 18.3596 5.37875 18.6971 5.5175 19.0046C5.27 19.1321 4.9925 19.1996 4.7 19.1996H2.3C1.30625 19.1996 0.5 18.3934 0.5 17.3996V5.9996Z" fill="white" fill-opacity="0.7"/>
</g>
<defs>
<clipPath id="clip0_732_1125">
<rect width="24" height="19.2" fill="white" transform="translate(0.5)"/>
</clipPath>
</defs>
</svg>
