<svg width="24" height="24" viewBox="0 0 24 24" fill="none" xmlns="http://www.w3.org/2000/svg">
<path fill-rule="evenodd" clip-rule="evenodd" d="M12.916 2.39752C12.7994 2.27789 12.6599 2.18281 12.506 2.11789C12.352 2.05298 12.1866 2.01953 12.0195 2.01953C11.8524 2.01953 11.687 2.05298 11.5331 2.11789C11.3791 2.18281 11.2397 2.27789 11.1231 2.39752L10.3243 3.21762C10.167 3.37916 9.96911 3.49526 9.75138 3.55366C9.53365 3.61205 9.30419 3.61059 9.08723 3.54941L7.98543 3.2389C7.8246 3.19365 7.65635 3.18103 7.49058 3.20181C7.3248 3.22258 7.16486 3.27632 7.02018 3.35987C6.8755 3.44341 6.749 3.55506 6.64814 3.68825C6.54727 3.82143 6.47408 3.97346 6.43288 4.13537L6.14992 5.24469C6.09444 5.46306 5.98107 5.66243 5.82175 5.82175C5.66243 5.98107 5.46306 6.09444 5.24469 6.14992L4.13537 6.43163C3.97346 6.47283 3.82143 6.54602 3.68825 6.64688C3.55506 6.74775 3.44341 6.87425 3.35987 7.01893C3.27632 7.16361 3.22258 7.32355 3.20181 7.48932C3.18103 7.6551 3.19365 7.82335 3.2389 7.98417L3.54941 9.08723C3.61059 9.30419 3.61205 9.53365 3.55366 9.75138C3.49526 9.96911 3.37916 10.167 3.21762 10.3243L2.39752 11.1231C2.27789 11.2397 2.18281 11.3791 2.11789 11.5331C2.05298 11.687 2.01953 11.8524 2.01953 12.0195C2.01953 12.1866 2.05298 12.352 2.11789 12.506C2.18281 12.6599 2.27789 12.7994 2.39752 12.916L3.21762 13.7161C3.37894 13.8732 3.4949 14.0709 3.5533 14.2884C3.61169 14.5058 3.61035 14.735 3.54941 14.9518L3.2389 16.0536C3.19365 16.2145 3.18103 16.3827 3.20181 16.5485C3.22258 16.7143 3.27632 16.8742 3.35987 17.0189C3.44341 17.1636 3.55506 17.2901 3.68825 17.3909C3.82143 17.4918 3.97346 17.565 4.13537 17.6062L5.24469 17.8891C5.46306 17.9446 5.66243 18.058 5.82175 18.2173C5.98107 18.3766 6.09444 18.576 6.14992 18.7944L6.43163 19.9037C6.47269 20.0657 6.54578 20.2179 6.64659 20.3512C6.74739 20.4845 6.87387 20.5963 7.01857 20.68C7.16327 20.7637 7.32325 20.8175 7.48909 20.8384C7.65493 20.8592 7.82327 20.8466 7.98417 20.8014L9.08723 20.4909C9.30408 20.4296 9.53347 20.4279 9.75119 20.4861C9.96891 20.5443 10.1669 20.6601 10.3243 20.8214L11.1231 21.6415C11.2397 21.7612 11.3791 21.8563 11.5331 21.9212C11.687 21.9861 11.8524 22.0195 12.0195 22.0195C12.1866 22.0195 12.352 21.9861 12.506 21.9212C12.6599 21.8563 12.7994 21.7612 12.916 21.6415L13.7161 20.8214C13.8733 20.6603 14.0711 20.5446 14.2885 20.4864C14.506 20.4283 14.7352 20.4298 14.9518 20.4909L16.0536 20.8014C16.2145 20.8466 16.3829 20.8592 16.5487 20.8384C16.7146 20.8175 16.8745 20.7637 17.0192 20.68C17.1639 20.5963 17.2904 20.4845 17.3912 20.3512C17.492 20.2179 17.5651 20.0657 17.6062 19.9037L17.8891 18.7944C17.9446 18.576 18.058 18.3766 18.2173 18.2173C18.3766 18.058 18.576 17.9446 18.7944 17.8891L19.9037 17.6074C20.0657 17.5664 20.2179 17.4933 20.3512 17.3925C20.4845 17.2917 20.5963 17.1652 20.68 17.0205C20.7637 16.8758 20.8175 16.7158 20.8384 16.55C20.8592 16.3841 20.8466 16.2158 20.8014 16.0549L20.4909 14.9531C20.4296 14.7362 20.4279 14.5068 20.4861 14.2891C20.5443 14.0714 20.6601 13.8734 20.8214 13.7161L21.6415 12.916C21.7612 12.7994 21.8563 12.6599 21.9212 12.506C21.9861 12.352 22.0195 12.1866 22.0195 12.0195C22.0195 11.8524 21.9861 11.687 21.9212 11.5331C21.8563 11.3791 21.7612 11.2397 21.6415 11.1231L20.8214 10.3243C20.6601 10.1669 20.5443 9.96891 20.4861 9.75119C20.4279 9.53347 20.4296 9.30408 20.4909 9.08723L20.8014 7.98543C20.8466 7.82452 20.8592 7.65618 20.8384 7.49034C20.8175 7.3245 20.7637 7.16452 20.68 7.01982C20.5963 6.87513 20.4845 6.74865 20.3512 6.64784C20.2179 6.54704 20.0657 6.47395 19.9037 6.43288L18.7944 6.14992C18.576 6.09444 18.3766 5.98107 18.2173 5.82175C18.058 5.66243 17.9446 5.46306 17.8891 5.24469L17.6074 4.13537C17.5662 3.97346 17.493 3.82143 17.3922 3.68825C17.2913 3.55506 17.1648 3.44341 17.0201 3.35987C16.8755 3.27632 16.7155 3.22258 16.5497 3.20181C16.384 3.18103 16.2157 3.19365 16.0549 3.2389L14.9531 3.54941C14.7359 3.61083 14.5062 3.61242 14.2883 3.55402C14.0703 3.49561 13.8722 3.37938 13.7148 3.21762L12.916 2.39752ZM16.7435 9.87853C16.9228 9.70552 17.0261 9.46837 17.0305 9.21924C17.035 8.97011 16.9403 8.72941 16.7673 8.5501C16.5943 8.37079 16.3571 8.26754 16.108 8.26308C15.8589 8.25862 15.6182 8.35331 15.4389 8.52631L10.2629 13.5245L8.61396 11.878C8.43746 11.7021 8.19829 11.6034 7.94904 11.6037C7.69979 11.6041 7.4609 11.7034 7.2849 11.8799C7.10891 12.0564 7.01023 12.2956 7.01059 12.5448C7.01094 12.7941 7.11029 13.033 7.28678 13.209L9.5893 15.5052C9.76319 15.679 9.99827 15.7776 10.2441 15.7799C10.4899 15.7823 10.7268 15.6882 10.904 15.5178L16.7435 9.87853Z" fill="white" fill-opacity="0.7"/>
</svg>
